<svg width="17" height="11" viewBox="0 0 17 11" fill="none" xmlns="http://www.w3.org/2000/svg">
<path d="M14.4708 1.72731C14.4708 0.899483 13.7206 0.222168 12.8036 0.222168H10.3028V1.72731H12.8036V3.72163L9.9027 6.99532H6.96843V3.23246H3.63404C1.79179 3.23246 0.299652 4.57956 0.299652 6.24275V8.50046H1.96685C1.96685 9.74973 3.08387 10.7582 4.46764 10.7582C5.85141 10.7582 6.96843 9.74973 6.96843 8.50046H10.7029L14.4708 4.24843V1.72731ZM4.46764 9.25303C4.00916 9.25303 3.63404 8.91438 3.63404 8.50046H5.30124C5.30124 8.91438 4.92612 9.25303 4.46764 9.25303Z" fill="black"/>
<path d="M6.96843 0.974609H2.80043V2.47974H6.96843V0.974609Z" fill="black"/>
<path d="M14.4708 6.24268C13.087 6.24268 11.97 7.25112 11.97 8.50038C11.97 9.74965 13.087 10.7581 14.4708 10.7581C15.8546 10.7581 16.9716 9.74965 16.9716 8.50038C16.9716 7.25112 15.8546 6.24268 14.4708 6.24268ZM14.4708 9.25295C14.0123 9.25295 13.6372 8.91429 13.6372 8.50038C13.6372 8.08647 14.0123 7.74781 14.4708 7.74781C14.9293 7.74781 15.3044 8.08647 15.3044 8.50038C15.3044 8.91429 14.9293 9.25295 14.4708 9.25295Z" fill="black"/>
</svg>
